# xmcd
#
# Track frame offsets:
#	150
#	13410
#	26834
#	39125
#	50806
#	62785
#	74717
#	86532
#	98306
#	110482
#	122628
#	134008
#	146114
#	156385
#	168733
#	180725
#	192991
#	205830
#	217869
#	228873
#	241556
#	253217
#	265936
#	277023
#	288353
#	301376
#
# Disc length: 4170 seconds
#
# Revision: 1
# Processed by: cddbd v1.5.1PL0 Copyright (c) Steve Scherf et al.
# Submitted via: audiograbber 1.83.01
#
DISCID=8a10481a
DTITLE=Roy Newman - Dust Off That Old Piano
DYEAR=1900
DGENRE=Western Swing
TTITLE0=Shine On, Harvest Moon
TTITLE1=Rock A Bye Moon
TTITLE2=Wonderful One
TTITLE3=Dust Off That Old Piano
TTITLE4=Mary Lou
TTITLE5=I'm Saving Saturday Night For You
TTITLE6=Backing In Your Own Backyard
TTITLE7=Everywhere You Go
TTITLE8=Tamiami Trail
TTITLE9=I Cried For You
TTITLE10=Take Me Back To My Home In The Mountains
TTITLE11=Eleven Pounds Of Heaven
TTITLE12=Where The Morning Glories Grow
TTITLE13=I Love My Baby
TTITLE14=I've Got The Walking Blues
TTITLE15=Kentucky, Sure AS You Born
TTITLE16=If I Ever Get To Heaven
TTITLE17=I'm Tired Of Everything But You
TTITLE18=Love Burning Love
TTITLE19=Everything Is Peaches Neath The Old Apple Tree
TTITLE20=I Ought To Break Your Neck
TTITLE21=Sadie Green
TTITLE22=Texas Stomp
TTITLE23=Everybody's Trying To Be My Baby
TTITLE24=I Can't Dance
TTITLE25=The Devil With The Devil
EXTD=
EXTT0=
EXTT1=
EXTT2=
EXTT3=
EXTT4=
EXTT5=
EXTT6=
EXTT7=
EXTT8=
EXTT9=
EXTT10=
EXTT11=
EXTT12=
EXTT13=
EXTT14=
EXTT15=
EXTT16=
EXTT17=
EXTT18=
EXTT19=
EXTT20=
EXTT21=
EXTT22=
EXTT23=
EXTT24=
EXTT25=
PLAYORDER=
